<?xml version="1.0"?>


<svg version="1.1" id="svg1" width="536" height="386.66666" viewBox="0 0 536 386.66666" xmlns="http://www.w3.org/2000/svg" xmlns:svg="http://www.w3.org/2000/svg">
  <defs id="defs1"></defs>
  <g id="g1">
    <path style="fill:#1C3144" d="m 35.113995,212.67642 c -1.895082,-12.21714 -6.392614,-22.34306 -3.675604,-34.99785 1.98823,-9.2604 6.624807,-17.93108 13.049294,-25.10715 36.788709,-41.09248 102.088375,-28.58479 147.254925,-8.89504 10.91191,4.75692 21.02981,10.81721 31.16589,16.89952 11.08842,6.65376 21.02526,14.37446 31.1659,22.23001 5.55052,4.29978 11.8199,8.48115 15.18338,14.65405 -6.91887,0.68054 -14.15862,-2.80715 -20.77726,-4.44693 -10.37063,-2.56933 -21.36534,-4.38563 -31.96503,-5.87933 -41.88332,-5.90224 -90.77895,-3.24442 -125.462702,22.51 -40.744737,30.25498 -52.006681,83.85741 -25.411699,126.28599 6.511333,10.38791 19.92565,29.15572 33.402947,31.19374 -3.01216,-5.91871 -8.51221,-10.96058 -12.057175,-16.7381 -6.808538,-11.09645 -11.25633,-23.70918 -12.580054,-36.51949 -1.099533,-10.6407 -0.198131,-21.74558 3.216225,-31.95456 3.049643,-9.11845 7.822376,-17.53543 13.950167,-25.10715 41.103611,-50.78893 114.871261,-44.97978 172.889831,-31.86651 25.26118,5.70952 52.02935,13.7898 75.1178,25.24572 4.99122,2.4765 19.10254,5.82571 21.63931,10.72374 1.86539,3.60166 -10.25976,10.51411 -12.84893,12.3475 -15.2632,10.80808 -33.75201,19.57345 -51.94316,24.8465 -40.2595,11.67 -85.62597,11.77188 -125.46271,-1.47291 -25.21706,-8.3841 -46.68894,-22.97625 -53.54141,-48.19308 h -1.59826 c -10.4572,17.75269 5.48676,37.1053 19.25055,48.18955 31.65122,25.48933 77.68569,32.74845 118.19905,30.10708 19.69835,-1.28427 40.01712,-3.07964 59.13529,-8.23166 52.07681,-14.03385 99.12752,-48.23497 128.30833,-91.36801 14.40977,-21.29948 20.91262,-42.84192 29.91853,-66.19157 15.32957,6.42023 14.33695,24.80589 12.32295,38.04113 -4.88089,32.07506 -21.92123,64.32537 -43.72624,89.01626 -56.49886,63.97656 -141.91262,89.58269 -227.51339,74.88351 -40.14609,-6.8938 -85.48231,-24.11901 -107.52246,-58.90623 -5.834728,-9.20928 -6.830298,-18.19818 -9.948998,-28.15044 h -0.799117 c -8.473216,15.38684 -1.150034,35.02624 8.801475,47.93183 21.00072,27.23473 58.59191,41.34554 91.88834,49.16877 105.22709,24.72376 217.78054,-18.37821 281.52036,-100.90471 18.54841,-24.01536 35.63655,-51.82513 38.19829,-82.16886 0.90639,-10.73576 0.91717,-21.44051 -4.70286,-31.19373 -11.38608,-19.75985 -37.82233,-24.6149 -59.29561,-20.03617 -4.99082,1.06419 -16.1504,2.9995 -19.03288,7.39924 -2.68779,4.10257 0.59597,14.24265 -0.50502,19.48434 -2.77567,13.21469 -8.68161,25.75164 -15.943,37.2803 -6.77994,10.76425 -14.33739,20.81309 -22.79113,30.43292 -2.34367,2.66696 -9.70354,10.79946 -11.56571,3.02861 -1.32814,-5.54225 5.0039,-15.09263 6.67843,-20.52754 3.96929,-12.88279 5.26719,-26.97844 5.61056,-40.32361 0.9896,-38.46194 -12.50653,-78.430402 -1.12411,-116.405875 4.91694,-16.404544 14.99829,-34.845393 33.10084,-40.898307 11.65692,-3.897684 20.93719,-1.940183 32.76415,-1.707766 -4.25677,-6.868069 -15.74049,-6.847404 -23.17464,-6.847404 -24.70788,0 -47.48656,15.622545 -58.24925,36.519491 -19.59438,38.044525 -16.59776,77.771191 -10.93555,118.688351 1.90192,13.74405 3.95486,40.03708 -12.21871,47.95412 -3.60204,1.76321 -11.11383,-8.05249 -13.70414,-10.23647 -14.15472,-11.93431 -28.18956,-23.62973 -43.10961,-34.75419 -46.13297,-34.39695 -106.83046,-63.07313 -167.0487,-57.61353 -36.106811,3.27355 -78.874645,17.636 -96.869316,50.08513 -6.567503,11.84293 -8.33477,25.79024 -4.918075,38.80196 1.348031,5.13367 3.110134,11.03499 8.289696,13.69481 M 432.27939,45.68934 c -13.20576,2.662206 -25.10997,10.130055 -31.45878,21.669935 -13.08656,23.786688 -1.74662,58.828445 28.26229,64.319475 7.63056,1.39624 15.55997,1.59244 23.17463,-0.0405 5.24891,-1.12561 9.98034,-3.88185 14.38426,-6.7294 39.27641,-25.396005 13.07101,-88.781806 -34.3624,-79.21949 m 34.3624,155.57474 c -16.31062,32.8721 -39.04409,62.44908 -68.72479,85.61956 -60.80617,47.46878 -146.29568,62.64293 -221.35778,41.60161 -17.2443,-4.83389 -33.07082,-13.75312 -47.14841,-24.12911 -6.13691,-4.52326 -10.66525,-12.50143 -17.58076,-15.59745 1.88202,7.81227 8.76341,14.6998 14.15611,20.54221 16.00834,17.34327 36.62301,28.49984 59.36344,35.93244 79.67116,26.04016 171.55788,3.283 230.94728,-52.67346 19.29618,-18.1808 37.9874,-41.85022 45.87822,-66.94948 2.12985,-6.77459 7.52678,-17.40077 4.46669,-24.34632 z" id="path5"></path>
    <path style="fill:#1C3144" id="path3"></path>
    <path style="fill:#1C3144" id="path2"></path>
  </g>
</svg>